<mxfile host="Electron" agent="Mozilla/5.0 (X11; Linux x86_64) AppleWebKit/537.36 (KHTML, like Gecko) draw.io/27.0.5 Chrome/134.0.6998.205 Electron/35.3.0 Safari/537.36" version="27.0.5">
  <diagram name="Page-1" id="ink58FIyrP2eUjN3Sv9S">
    <mxGraphModel dx="2194" dy="1277" grid="1" gridSize="10" guides="1" tooltips="1" connect="1" arrows="1" fold="1" page="1" pageScale="1" pageWidth="850" pageHeight="1100" math="0" shadow="0">
      <root>
        <mxCell id="0" />
        <mxCell id="1" parent="0" />
        <mxCell id="fCVc0-EO7zVbpaBIhk0g-38" style="edgeStyle=orthogonalEdgeStyle;rounded=0;orthogonalLoop=1;jettySize=auto;html=1;entryX=0;entryY=0.5;entryDx=0;entryDy=0;strokeWidth=2;endArrow=diamondThin;endFill=1;" edge="1" parent="1" source="fCVc0-EO7zVbpaBIhk0g-3">
          <mxGeometry relative="1" as="geometry">
            <mxPoint x="240" y="180" as="targetPoint" />
          </mxGeometry>
        </mxCell>
        <mxCell id="fCVc0-EO7zVbpaBIhk0g-39" style="edgeStyle=orthogonalEdgeStyle;rounded=0;orthogonalLoop=1;jettySize=auto;html=1;entryX=0;entryY=0.5;entryDx=0;entryDy=0;strokeWidth=2;endArrow=diamondThin;endFill=1;" edge="1" parent="1" source="fCVc0-EO7zVbpaBIhk0g-12">
          <mxGeometry relative="1" as="geometry">
            <mxPoint x="440" y="180" as="targetPoint" />
          </mxGeometry>
        </mxCell>
        <mxCell id="fCVc0-EO7zVbpaBIhk0g-40" style="edgeStyle=orthogonalEdgeStyle;rounded=0;orthogonalLoop=1;jettySize=auto;html=1;entryX=0;entryY=0.5;entryDx=0;entryDy=0;strokeWidth=2;endArrow=diamondThin;endFill=1;" edge="1" parent="1" source="fCVc0-EO7zVbpaBIhk0g-33">
          <mxGeometry relative="1" as="geometry">
            <mxPoint x="640" y="180" as="targetPoint" />
          </mxGeometry>
        </mxCell>
        <mxCell id="fCVc0-EO7zVbpaBIhk0g-89" value="" style="group" vertex="1" connectable="0" parent="1">
          <mxGeometry x="520" y="10" width="1080" height="150" as="geometry" />
        </mxCell>
        <mxCell id="fCVc0-EO7zVbpaBIhk0g-45" value="" style="rounded=0;whiteSpace=wrap;html=1;fillColor=#030303;" vertex="1" parent="fCVc0-EO7zVbpaBIhk0g-89">
          <mxGeometry y="140" width="1080" height="10" as="geometry" />
        </mxCell>
        <mxCell id="fCVc0-EO7zVbpaBIhk0g-65" value="&lt;div&gt;&lt;font face=&quot;Product Sans&quot;&gt;&lt;span style=&quot;background-color: transparent; color: light-dark(rgb(0, 0, 0), rgb(255, 255, 255));&quot;&gt;STATE ALPHA&lt;/span&gt;&lt;/font&gt;&lt;/div&gt;" style="swimlane;whiteSpace=wrap;html=1;" vertex="1" parent="fCVc0-EO7zVbpaBIhk0g-89">
          <mxGeometry width="1080" height="140" as="geometry" />
        </mxCell>
        <mxCell id="fCVc0-EO7zVbpaBIhk0g-66" value="" style="rounded=0;whiteSpace=wrap;html=1;fillColor=#030303;" vertex="1" parent="fCVc0-EO7zVbpaBIhk0g-65">
          <mxGeometry y="-10" width="1080" height="10" as="geometry" />
        </mxCell>
        <mxCell id="fCVc0-EO7zVbpaBIhk0g-41" style="edgeStyle=orthogonalEdgeStyle;rounded=0;orthogonalLoop=1;jettySize=auto;html=1;entryX=0;entryY=0.5;entryDx=0;entryDy=0;strokeWidth=2;endArrow=diamondThin;endFill=1;exitX=1;exitY=0.5;exitDx=0;exitDy=0;curved=1;" edge="1" parent="fCVc0-EO7zVbpaBIhk0g-65" source="fCVc0-EO7zVbpaBIhk0g-42">
          <mxGeometry relative="1" as="geometry">
            <mxPoint x="240" y="80" as="sourcePoint" />
            <mxPoint x="320" y="80" as="targetPoint" />
          </mxGeometry>
        </mxCell>
        <mxCell id="fCVc0-EO7zVbpaBIhk0g-42" value="IntrusivePool.m_front" style="text;strokeColor=#36393d;align=center;fillColor=#cce5ff;html=1;verticalAlign=middle;whiteSpace=wrap;rounded=0;fontFamily=mono;" vertex="1" parent="fCVc0-EO7zVbpaBIhk0g-65">
          <mxGeometry x="40" y="60" width="190" height="40" as="geometry" />
        </mxCell>
        <mxCell id="fCVc0-EO7zVbpaBIhk0g-87" value="nullptr" style="text;align=center;html=1;verticalAlign=middle;whiteSpace=wrap;rounded=0;fontFamily=mono;fillColor=#f5f5f5;fontColor=#333333;strokeColor=#666666;" vertex="1" parent="fCVc0-EO7zVbpaBIhk0g-65">
          <mxGeometry x="320" y="60" width="90" height="40" as="geometry" />
        </mxCell>
        <mxCell id="fCVc0-EO7zVbpaBIhk0g-152" value="" style="group" vertex="1" connectable="0" parent="1">
          <mxGeometry x="520" y="250" width="1080" height="270" as="geometry" />
        </mxCell>
        <mxCell id="fCVc0-EO7zVbpaBIhk0g-67" value="" style="group" vertex="1" connectable="0" parent="fCVc0-EO7zVbpaBIhk0g-152">
          <mxGeometry x="320" y="80" width="120" height="110" as="geometry" />
        </mxCell>
        <mxCell id="fCVc0-EO7zVbpaBIhk0g-68" value="FREE ITEM" style="rounded=1;whiteSpace=wrap;html=1;fontFamily=Product Sans;fontSize=18;fontStyle=0;fillColor=#eeeeee;strokeColor=#36393d;gradientColor=none;strokeWidth=3;glass=0;shadow=1;" vertex="1" parent="fCVc0-EO7zVbpaBIhk0g-67">
          <mxGeometry width="120" height="80" as="geometry" />
        </mxCell>
        <mxCell id="fCVc0-EO7zVbpaBIhk0g-69" value="N &amp;gt;= sizeof(void*)" style="rounded=1;whiteSpace=wrap;html=1;fontFamily=mono;fontSize=8;fontStyle=0;fillColor=#eeeeee;strokeColor=#36393d;gradientColor=none;strokeWidth=3;glass=0;shadow=1;arcSize=20;imageHeight=24;" vertex="1" parent="fCVc0-EO7zVbpaBIhk0g-67">
          <mxGeometry x="10" y="80" width="100" height="30" as="geometry" />
        </mxCell>
        <mxCell id="fCVc0-EO7zVbpaBIhk0g-70" value="" style="group" vertex="1" connectable="0" parent="fCVc0-EO7zVbpaBIhk0g-152">
          <mxGeometry x="520" y="80" width="120" height="110" as="geometry" />
        </mxCell>
        <mxCell id="fCVc0-EO7zVbpaBIhk0g-71" value="FREE ITEM" style="rounded=1;whiteSpace=wrap;html=1;fontFamily=Product Sans;fontSize=18;fontStyle=0;fillColor=#eeeeee;strokeColor=#36393d;gradientColor=none;strokeWidth=3;glass=0;shadow=1;" vertex="1" parent="fCVc0-EO7zVbpaBIhk0g-70">
          <mxGeometry width="120" height="80" as="geometry" />
        </mxCell>
        <mxCell id="fCVc0-EO7zVbpaBIhk0g-72" value="N &amp;gt;= sizeof(void*)" style="rounded=1;whiteSpace=wrap;html=1;fontFamily=mono;fontSize=8;fontStyle=0;fillColor=#eeeeee;strokeColor=#36393d;gradientColor=none;strokeWidth=3;glass=0;shadow=1;arcSize=20;imageHeight=24;" vertex="1" parent="fCVc0-EO7zVbpaBIhk0g-70">
          <mxGeometry x="10" y="80" width="100" height="30" as="geometry" />
        </mxCell>
        <mxCell id="fCVc0-EO7zVbpaBIhk0g-73" value="" style="group" vertex="1" connectable="0" parent="fCVc0-EO7zVbpaBIhk0g-152">
          <mxGeometry x="720" y="80" width="120" height="110" as="geometry" />
        </mxCell>
        <mxCell id="fCVc0-EO7zVbpaBIhk0g-74" value="FREE ITEM" style="rounded=1;whiteSpace=wrap;html=1;fontFamily=Product Sans;fontSize=18;fontStyle=0;fillColor=#eeeeee;strokeColor=#36393d;gradientColor=none;strokeWidth=3;glass=0;shadow=1;" vertex="1" parent="fCVc0-EO7zVbpaBIhk0g-73">
          <mxGeometry width="120" height="80" as="geometry" />
        </mxCell>
        <mxCell id="fCVc0-EO7zVbpaBIhk0g-75" value="N &amp;gt;= sizeof(void*)" style="rounded=1;whiteSpace=wrap;html=1;fontFamily=mono;fontSize=8;fontStyle=0;fillColor=#eeeeee;strokeColor=#36393d;gradientColor=none;strokeWidth=3;glass=0;shadow=1;arcSize=20;imageHeight=24;" vertex="1" parent="fCVc0-EO7zVbpaBIhk0g-73">
          <mxGeometry x="10" y="80" width="100" height="30" as="geometry" />
        </mxCell>
        <mxCell id="fCVc0-EO7zVbpaBIhk0g-76" value="" style="group" vertex="1" connectable="0" parent="fCVc0-EO7zVbpaBIhk0g-152">
          <mxGeometry x="920" y="80" width="120" height="110" as="geometry" />
        </mxCell>
        <mxCell id="fCVc0-EO7zVbpaBIhk0g-77" value="FREE ITEM" style="rounded=1;whiteSpace=wrap;html=1;fontFamily=Product Sans;fontSize=18;fontStyle=0;fillColor=#eeeeee;strokeColor=#36393d;gradientColor=none;strokeWidth=3;glass=0;shadow=1;" vertex="1" parent="fCVc0-EO7zVbpaBIhk0g-76">
          <mxGeometry width="120" height="80" as="geometry" />
        </mxCell>
        <mxCell id="fCVc0-EO7zVbpaBIhk0g-78" value="N &amp;gt;= sizeof(void*)" style="rounded=1;whiteSpace=wrap;html=1;fontFamily=mono;fontSize=8;fontStyle=0;fillColor=#eeeeee;strokeColor=#36393d;gradientColor=none;strokeWidth=3;glass=0;shadow=1;arcSize=20;imageHeight=24;" vertex="1" parent="fCVc0-EO7zVbpaBIhk0g-76">
          <mxGeometry x="10" y="80" width="100" height="30" as="geometry" />
        </mxCell>
        <mxCell id="fCVc0-EO7zVbpaBIhk0g-79" style="edgeStyle=orthogonalEdgeStyle;rounded=0;orthogonalLoop=1;jettySize=auto;html=1;entryX=0;entryY=0.5;entryDx=0;entryDy=0;strokeWidth=2;endArrow=diamondThin;endFill=1;" edge="1" parent="fCVc0-EO7zVbpaBIhk0g-152" source="fCVc0-EO7zVbpaBIhk0g-68" target="fCVc0-EO7zVbpaBIhk0g-71">
          <mxGeometry relative="1" as="geometry" />
        </mxCell>
        <mxCell id="fCVc0-EO7zVbpaBIhk0g-80" style="edgeStyle=orthogonalEdgeStyle;rounded=0;orthogonalLoop=1;jettySize=auto;html=1;entryX=0;entryY=0.5;entryDx=0;entryDy=0;strokeWidth=2;endArrow=diamondThin;endFill=1;" edge="1" parent="fCVc0-EO7zVbpaBIhk0g-152" source="fCVc0-EO7zVbpaBIhk0g-71" target="fCVc0-EO7zVbpaBIhk0g-74">
          <mxGeometry relative="1" as="geometry" />
        </mxCell>
        <mxCell id="fCVc0-EO7zVbpaBIhk0g-81" style="edgeStyle=orthogonalEdgeStyle;rounded=0;orthogonalLoop=1;jettySize=auto;html=1;entryX=0;entryY=0.5;entryDx=0;entryDy=0;strokeWidth=2;endArrow=diamondThin;endFill=1;" edge="1" parent="fCVc0-EO7zVbpaBIhk0g-152" source="fCVc0-EO7zVbpaBIhk0g-74" target="fCVc0-EO7zVbpaBIhk0g-77">
          <mxGeometry relative="1" as="geometry" />
        </mxCell>
        <mxCell id="fCVc0-EO7zVbpaBIhk0g-82" style="edgeStyle=orthogonalEdgeStyle;rounded=0;orthogonalLoop=1;jettySize=auto;html=1;entryX=0;entryY=0.5;entryDx=0;entryDy=0;strokeWidth=2;endArrow=diamondThin;endFill=1;exitX=1;exitY=0.5;exitDx=0;exitDy=0;curved=1;" edge="1" parent="fCVc0-EO7zVbpaBIhk0g-152" source="fCVc0-EO7zVbpaBIhk0g-83">
          <mxGeometry relative="1" as="geometry">
            <mxPoint x="240" y="120" as="sourcePoint" />
            <mxPoint x="320" y="120" as="targetPoint" />
          </mxGeometry>
        </mxCell>
        <mxCell id="fCVc0-EO7zVbpaBIhk0g-83" value="IntrusivePool.m_front" style="text;strokeColor=#36393d;align=center;fillColor=#cce5ff;html=1;verticalAlign=middle;whiteSpace=wrap;rounded=0;fontFamily=mono;" vertex="1" parent="fCVc0-EO7zVbpaBIhk0g-152">
          <mxGeometry x="40" y="100" width="190" height="40" as="geometry" />
        </mxCell>
        <mxCell id="fCVc0-EO7zVbpaBIhk0g-84" value="" style="rounded=0;whiteSpace=wrap;html=1;fillColor=#030303;" vertex="1" parent="fCVc0-EO7zVbpaBIhk0g-152">
          <mxGeometry y="260" width="1080" height="10" as="geometry" />
        </mxCell>
        <mxCell id="fCVc0-EO7zVbpaBIhk0g-85" value="&lt;div&gt;&lt;font face=&quot;Product Sans&quot;&gt;STATE BETA&lt;/font&gt;&lt;/div&gt;" style="swimlane;whiteSpace=wrap;html=1;" vertex="1" parent="fCVc0-EO7zVbpaBIhk0g-152">
          <mxGeometry width="1080" height="260" as="geometry" />
        </mxCell>
        <mxCell id="fCVc0-EO7zVbpaBIhk0g-86" value="" style="rounded=0;whiteSpace=wrap;html=1;fillColor=#030303;" vertex="1" parent="fCVc0-EO7zVbpaBIhk0g-85">
          <mxGeometry y="-10" width="1080" height="10" as="geometry" />
        </mxCell>
        <mxCell id="fCVc0-EO7zVbpaBIhk0g-153" value="" style="group" vertex="1" connectable="0" parent="1">
          <mxGeometry x="520" y="610" width="1080" height="270" as="geometry" />
        </mxCell>
        <mxCell id="fCVc0-EO7zVbpaBIhk0g-111" value="" style="group" vertex="1" connectable="0" parent="fCVc0-EO7zVbpaBIhk0g-153">
          <mxGeometry x="320" y="80" width="120" height="110" as="geometry" />
        </mxCell>
        <mxCell id="fCVc0-EO7zVbpaBIhk0g-112" value="OBJECT" style="rounded=1;whiteSpace=wrap;html=1;fontFamily=Product Sans;fontSize=18;fontStyle=0;fillColor=#eeeeee;strokeColor=#36393d;gradientColor=none;strokeWidth=3;glass=0;shadow=1;" vertex="1" parent="fCVc0-EO7zVbpaBIhk0g-111">
          <mxGeometry width="120" height="80" as="geometry" />
        </mxCell>
        <mxCell id="fCVc0-EO7zVbpaBIhk0g-113" value="N &amp;gt;= sizeof(void*)" style="rounded=1;whiteSpace=wrap;html=1;fontFamily=mono;fontSize=8;fontStyle=0;fillColor=#eeeeee;strokeColor=#36393d;gradientColor=none;strokeWidth=3;glass=0;shadow=1;arcSize=20;imageHeight=24;" vertex="1" parent="fCVc0-EO7zVbpaBIhk0g-111">
          <mxGeometry x="10" y="80" width="100" height="30" as="geometry" />
        </mxCell>
        <mxCell id="fCVc0-EO7zVbpaBIhk0g-114" value="" style="group" vertex="1" connectable="0" parent="fCVc0-EO7zVbpaBIhk0g-153">
          <mxGeometry x="520" y="80" width="120" height="110" as="geometry" />
        </mxCell>
        <mxCell id="fCVc0-EO7zVbpaBIhk0g-115" value="FREE ITEM" style="rounded=1;whiteSpace=wrap;html=1;fontFamily=Product Sans;fontSize=18;fontStyle=0;fillColor=#eeeeee;strokeColor=#36393d;gradientColor=none;strokeWidth=3;glass=0;shadow=1;" vertex="1" parent="fCVc0-EO7zVbpaBIhk0g-114">
          <mxGeometry width="120" height="80" as="geometry" />
        </mxCell>
        <mxCell id="fCVc0-EO7zVbpaBIhk0g-116" value="N &amp;gt;= sizeof(void*)" style="rounded=1;whiteSpace=wrap;html=1;fontFamily=mono;fontSize=8;fontStyle=0;fillColor=#eeeeee;strokeColor=#36393d;gradientColor=none;strokeWidth=3;glass=0;shadow=1;arcSize=20;imageHeight=24;" vertex="1" parent="fCVc0-EO7zVbpaBIhk0g-114">
          <mxGeometry x="10" y="80" width="100" height="30" as="geometry" />
        </mxCell>
        <mxCell id="fCVc0-EO7zVbpaBIhk0g-117" value="" style="group" vertex="1" connectable="0" parent="fCVc0-EO7zVbpaBIhk0g-153">
          <mxGeometry x="720" y="80" width="120" height="110" as="geometry" />
        </mxCell>
        <mxCell id="fCVc0-EO7zVbpaBIhk0g-118" value="OBJECT" style="rounded=1;whiteSpace=wrap;html=1;fontFamily=Product Sans;fontSize=18;fontStyle=0;fillColor=#eeeeee;strokeColor=#36393d;gradientColor=none;strokeWidth=3;glass=0;shadow=1;" vertex="1" parent="fCVc0-EO7zVbpaBIhk0g-117">
          <mxGeometry width="120" height="80" as="geometry" />
        </mxCell>
        <mxCell id="fCVc0-EO7zVbpaBIhk0g-119" value="N &amp;gt;= sizeof(void*)" style="rounded=1;whiteSpace=wrap;html=1;fontFamily=mono;fontSize=8;fontStyle=0;fillColor=#eeeeee;strokeColor=#36393d;gradientColor=none;strokeWidth=3;glass=0;shadow=1;arcSize=20;imageHeight=24;" vertex="1" parent="fCVc0-EO7zVbpaBIhk0g-117">
          <mxGeometry x="10" y="80" width="100" height="30" as="geometry" />
        </mxCell>
        <mxCell id="fCVc0-EO7zVbpaBIhk0g-120" value="" style="group" vertex="1" connectable="0" parent="fCVc0-EO7zVbpaBIhk0g-153">
          <mxGeometry x="920" y="80" width="120" height="110" as="geometry" />
        </mxCell>
        <mxCell id="fCVc0-EO7zVbpaBIhk0g-121" value="FREE ITEM" style="rounded=1;whiteSpace=wrap;html=1;fontFamily=Product Sans;fontSize=18;fontStyle=0;fillColor=#eeeeee;strokeColor=#36393d;gradientColor=none;strokeWidth=3;glass=0;shadow=1;" vertex="1" parent="fCVc0-EO7zVbpaBIhk0g-120">
          <mxGeometry width="120" height="80" as="geometry" />
        </mxCell>
        <mxCell id="fCVc0-EO7zVbpaBIhk0g-122" value="N &amp;gt;= sizeof(void*)" style="rounded=1;whiteSpace=wrap;html=1;fontFamily=mono;fontSize=8;fontStyle=0;fillColor=#eeeeee;strokeColor=#36393d;gradientColor=none;strokeWidth=3;glass=0;shadow=1;arcSize=20;imageHeight=24;" vertex="1" parent="fCVc0-EO7zVbpaBIhk0g-120">
          <mxGeometry x="10" y="80" width="100" height="30" as="geometry" />
        </mxCell>
        <mxCell id="fCVc0-EO7zVbpaBIhk0g-125" style="edgeStyle=orthogonalEdgeStyle;rounded=1;orthogonalLoop=1;jettySize=auto;html=1;entryX=0;entryY=0.5;entryDx=0;entryDy=0;strokeWidth=2;endArrow=diamondThin;endFill=1;exitX=1;exitY=0.5;exitDx=0;exitDy=0;curved=0;" edge="1" parent="fCVc0-EO7zVbpaBIhk0g-153" source="fCVc0-EO7zVbpaBIhk0g-115" target="fCVc0-EO7zVbpaBIhk0g-121">
          <mxGeometry relative="1" as="geometry">
            <Array as="points">
              <mxPoint x="680" y="120" />
              <mxPoint x="680" y="60" />
              <mxPoint x="880" y="60" />
              <mxPoint x="880" y="120" />
            </Array>
          </mxGeometry>
        </mxCell>
        <mxCell id="fCVc0-EO7zVbpaBIhk0g-126" style="edgeStyle=orthogonalEdgeStyle;rounded=1;orthogonalLoop=1;jettySize=auto;html=1;entryX=0;entryY=0.5;entryDx=0;entryDy=0;strokeWidth=2;endArrow=diamondThin;endFill=1;exitX=1;exitY=0.5;exitDx=0;exitDy=0;curved=0;" edge="1" parent="fCVc0-EO7zVbpaBIhk0g-153" source="fCVc0-EO7zVbpaBIhk0g-127" target="fCVc0-EO7zVbpaBIhk0g-115">
          <mxGeometry relative="1" as="geometry">
            <mxPoint x="240" y="120" as="sourcePoint" />
            <mxPoint x="320" y="120" as="targetPoint" />
            <Array as="points">
              <mxPoint x="280" y="120" />
              <mxPoint x="280" y="60" />
              <mxPoint x="480" y="60" />
              <mxPoint x="480" y="120" />
            </Array>
          </mxGeometry>
        </mxCell>
        <mxCell id="fCVc0-EO7zVbpaBIhk0g-127" value="IntrusivePool.m_front" style="text;strokeColor=#36393d;align=center;fillColor=#cce5ff;html=1;verticalAlign=middle;whiteSpace=wrap;rounded=0;fontFamily=mono;" vertex="1" parent="fCVc0-EO7zVbpaBIhk0g-153">
          <mxGeometry x="40" y="100" width="190" height="40" as="geometry" />
        </mxCell>
        <mxCell id="fCVc0-EO7zVbpaBIhk0g-128" value="" style="rounded=0;whiteSpace=wrap;html=1;fillColor=#030303;" vertex="1" parent="fCVc0-EO7zVbpaBIhk0g-153">
          <mxGeometry y="260" width="1080" height="10" as="geometry" />
        </mxCell>
        <mxCell id="fCVc0-EO7zVbpaBIhk0g-129" value="&lt;span style=&quot;font-family: &amp;quot;Product Sans&amp;quot;;&quot;&gt;STATE GAMMA&lt;/span&gt;" style="swimlane;whiteSpace=wrap;html=1;" vertex="1" parent="fCVc0-EO7zVbpaBIhk0g-153">
          <mxGeometry width="1080" height="260" as="geometry" />
        </mxCell>
        <mxCell id="fCVc0-EO7zVbpaBIhk0g-130" value="" style="rounded=0;whiteSpace=wrap;html=1;fillColor=#030303;" vertex="1" parent="fCVc0-EO7zVbpaBIhk0g-129">
          <mxGeometry y="-10" width="1080" height="10" as="geometry" />
        </mxCell>
        <mxCell id="fCVc0-EO7zVbpaBIhk0g-164" value="" style="group" vertex="1" connectable="0" parent="1">
          <mxGeometry x="40" y="160" width="420" height="520" as="geometry" />
        </mxCell>
        <mxCell id="fCVc0-EO7zVbpaBIhk0g-157" style="edgeStyle=orthogonalEdgeStyle;rounded=1;orthogonalLoop=1;jettySize=auto;html=1;entryX=0.5;entryY=0;entryDx=0;entryDy=0;curved=0;strokeWidth=3;endArrow=block;endFill=1;" edge="1" parent="fCVc0-EO7zVbpaBIhk0g-164" source="fCVc0-EO7zVbpaBIhk0g-154" target="fCVc0-EO7zVbpaBIhk0g-155">
          <mxGeometry relative="1" as="geometry" />
        </mxCell>
        <mxCell id="fCVc0-EO7zVbpaBIhk0g-154" value="ALPHA" style="ellipse;whiteSpace=wrap;html=1;aspect=fixed;fillColor=#d0cee2;strokeColor=#56517e;strokeWidth=4;fontFamily=Product Sans;fontSize=22;fontStyle=1;" vertex="1" parent="fCVc0-EO7zVbpaBIhk0g-164">
          <mxGeometry x="240" width="120" height="120" as="geometry" />
        </mxCell>
        <mxCell id="fCVc0-EO7zVbpaBIhk0g-160" style="edgeStyle=orthogonalEdgeStyle;rounded=1;orthogonalLoop=1;jettySize=auto;html=1;entryX=0.5;entryY=0;entryDx=0;entryDy=0;strokeWidth=3;endArrow=block;endFill=1;curved=0;" edge="1" parent="fCVc0-EO7zVbpaBIhk0g-164" source="fCVc0-EO7zVbpaBIhk0g-155" target="fCVc0-EO7zVbpaBIhk0g-156">
          <mxGeometry relative="1" as="geometry" />
        </mxCell>
        <mxCell id="fCVc0-EO7zVbpaBIhk0g-163" style="edgeStyle=orthogonalEdgeStyle;rounded=1;orthogonalLoop=1;jettySize=auto;html=1;entryX=1;entryY=0.5;entryDx=0;entryDy=0;curved=0;strokeWidth=3;endArrow=block;endFill=1;" edge="1" parent="fCVc0-EO7zVbpaBIhk0g-164" source="fCVc0-EO7zVbpaBIhk0g-155" target="fCVc0-EO7zVbpaBIhk0g-154">
          <mxGeometry relative="1" as="geometry">
            <Array as="points">
              <mxPoint x="400" y="260" />
              <mxPoint x="400" y="60" />
            </Array>
          </mxGeometry>
        </mxCell>
        <mxCell id="fCVc0-EO7zVbpaBIhk0g-155" value="BETA" style="ellipse;whiteSpace=wrap;html=1;aspect=fixed;fillColor=#d0cee2;strokeColor=#56517e;strokeWidth=4;fontFamily=Product Sans;fontSize=22;fontStyle=1;" vertex="1" parent="fCVc0-EO7zVbpaBIhk0g-164">
          <mxGeometry x="240" y="200" width="120" height="120" as="geometry" />
        </mxCell>
        <mxCell id="fCVc0-EO7zVbpaBIhk0g-161" style="edgeStyle=orthogonalEdgeStyle;rounded=1;orthogonalLoop=1;jettySize=auto;html=1;entryX=0;entryY=0.5;entryDx=0;entryDy=0;curved=0;strokeWidth=3;endArrow=block;endFill=1;" edge="1" parent="fCVc0-EO7zVbpaBIhk0g-164" source="fCVc0-EO7zVbpaBIhk0g-156" target="fCVc0-EO7zVbpaBIhk0g-155">
          <mxGeometry relative="1" as="geometry">
            <Array as="points">
              <mxPoint x="190" y="440" />
              <mxPoint x="190" y="260" />
            </Array>
          </mxGeometry>
        </mxCell>
        <mxCell id="fCVc0-EO7zVbpaBIhk0g-162" style="edgeStyle=orthogonalEdgeStyle;rounded=1;orthogonalLoop=1;jettySize=auto;html=1;entryX=1;entryY=1;entryDx=0;entryDy=0;curved=0;strokeWidth=3;endArrow=block;endFill=1;" edge="1" parent="fCVc0-EO7zVbpaBIhk0g-164" source="fCVc0-EO7zVbpaBIhk0g-156" target="fCVc0-EO7zVbpaBIhk0g-154">
          <mxGeometry relative="1" as="geometry">
            <Array as="points">
              <mxPoint x="420" y="460" />
              <mxPoint x="420" y="102" />
            </Array>
          </mxGeometry>
        </mxCell>
        <mxCell id="fCVc0-EO7zVbpaBIhk0g-156" value="GAMMA" style="ellipse;whiteSpace=wrap;html=1;aspect=fixed;fillColor=#d0cee2;strokeColor=#56517e;strokeWidth=4;fontFamily=Product Sans;fontSize=22;fontStyle=1;" vertex="1" parent="fCVc0-EO7zVbpaBIhk0g-164">
          <mxGeometry x="240" y="400" width="120" height="120" as="geometry" />
        </mxCell>
        <mxCell id="fCVc0-EO7zVbpaBIhk0g-159" style="edgeStyle=orthogonalEdgeStyle;rounded=1;orthogonalLoop=1;jettySize=auto;html=1;entryX=0;entryY=0.5;entryDx=0;entryDy=0;curved=0;strokeWidth=3;endArrow=block;endFill=1;" edge="1" parent="fCVc0-EO7zVbpaBIhk0g-164" source="fCVc0-EO7zVbpaBIhk0g-158" target="fCVc0-EO7zVbpaBIhk0g-154">
          <mxGeometry relative="1" as="geometry" />
        </mxCell>
        <mxCell id="fCVc0-EO7zVbpaBIhk0g-158" value="START" style="ellipse;whiteSpace=wrap;html=1;aspect=fixed;fillColor=#008a00;strokeColor=#005700;strokeWidth=4;fontFamily=Product Sans;fontSize=22;fontStyle=1;fontColor=#ffffff;" vertex="1" parent="fCVc0-EO7zVbpaBIhk0g-164">
          <mxGeometry width="120" height="120" as="geometry" />
        </mxCell>
        <mxCell id="fCVc0-EO7zVbpaBIhk0g-165" value="IntrusivePool Allocator Design" style="text;strokeColor=none;align=center;fillColor=none;html=1;verticalAlign=middle;whiteSpace=wrap;rounded=0;fontStyle=0;fontFamily=Product Sans;fontSize=32;" vertex="1" parent="1">
          <mxGeometry width="450" height="80" as="geometry" />
        </mxCell>
      </root>
    </mxGraphModel>
  </diagram>
</mxfile>
